<!DOCTYPE svg PUBLIC "-//W3C//DTD SVG 1.1//EN" "http://www.w3.org/Graphics/SVG/1.1/DTD/svg11.dtd">
<!-- Uploaded to: SVG Repo, www.svgrepo.com, Transformed by: SVG Repo Mixer Tools -->
<svg version="1.1" id="Uploaded to svgrepo.com" xmlns="http://www.w3.org/2000/svg" xmlns:xlink="http://www.w3.org/1999/xlink" width="800px" height="800px" viewBox="0 0 32 32" xml:space="preserve" fill="#0048BD">
<g id="SVGRepo_bgCarrier" stroke-width="0"/>
<g id="SVGRepo_tracerCarrier" stroke-linecap="round" stroke-linejoin="round"/>
<g id="SVGRepo_iconCarrier"> <style type="text/css"> .stone_een{fill:#0048BD;} </style> <path class="stone_een" d="M15,3c0-1.657,1.343-3,3-3s3,1.343,3,3s-1.343,3-3,3S15,4.657,15,3z M12,10c1.657,0,3-1.343,3-3 s-1.343-3-3-3S9,5.343,9,7S10.343,10,12,10z M13,13c0,0.353,0.071,0.687,0.187,1h5.627C18.929,13.687,19,13.353,19,13 c0-0.706-0.255-1.345-0.663-1.857C17.787,10.452,16.951,10,16,10c-0.95,0-1.785,0.451-2.335,1.14C13.256,11.653,13,12.293,13,13z M29.211,20.106l-1.33-0.665c-0.621-4.423-3.896-7.116-8.246-8.052C19.86,11.883,20,12.422,20,13c0,0.348-0.061,0.679-0.146,1H20.5 c0.276,0,0.5,0.224,0.5,0.5S20.776,15,20.5,15h-9c-0.276,0-0.5-0.224-0.5-0.5s0.224-0.5,0.5-0.5h0.646 C12.061,13.679,12,13.348,12,13c0-0.578,0.14-1.118,0.366-1.613c-3.583,0.772-6.438,2.733-7.68,5.876l-1.95,0.535 C2.301,17.917,2,18.312,2,18.763v4.475c0,0.45,0.301,0.845,0.735,0.964l1.95,0.535c0.649,1.643,1.735,2.964,3.139,3.962 l-0.515,2.058C7.153,31.389,7.63,32,8.281,32h3.938c0.459,0,0.859-0.312,0.97-0.758l0.112-0.448C14.17,30.926,15.071,31,16,31 c1.275,0,2.503-0.128,3.656-0.377l0.155,0.619C19.922,31.688,20.322,32,20.781,32h3.938c0.651,0,1.128-0.611,0.97-1.243 l-0.681-2.722c1.523-1.361,2.551-3.188,2.872-5.476l1.33-0.665C29.948,21.526,29.948,20.474,29.211,20.106z"/> </g>
</svg>