<!DOCTYPE svg PUBLIC "-//W3C//DTD SVG 1.1//EN" "http://www.w3.org/Graphics/SVG/1.1/DTD/svg11.dtd">
<!-- Uploaded to: SVG Repo, www.svgrepo.com, Transformed by: SVG Repo Mixer Tools -->
<svg width="800px" height="800px" viewBox="-3.02 0 48.891 48.891" xmlns="http://www.w3.org/2000/svg" fill="#000000">
<g id="SVGRepo_bgCarrier" stroke-width="0"/>
<g id="SVGRepo_tracerCarrier" stroke-linecap="round" stroke-linejoin="round"/>
<g id="SVGRepo_iconCarrier"> <g id="red_dimond_premium" data-name="red dimond premium" transform="translate(-229.078 -417.619)"> <path id="Path_140" data-name="Path 140" d="M240.523,432.087l-7.982,9.977L250.5,466.01l17.959-23.946-7.982-9.977Z" fill="#0048BD" fill-rule="evenodd"/> <path id="Path_141" data-name="Path 141" d="M238.527,421.328l2.993,5.184m-11.759,3.58,5.186,2.993m36.29-2.993-5.184,2.993m-3.58-11.757-2.993,5.184m-8.98-8.393v5.986m17.959,17.96H232.541m16.273-9.978-1.842,9.978L250.5,466.01l3.528-23.945-1.842-9.978Zm-3.668,0-4.671,9.978L250.5,466.01l10.025-23.945-4.671-9.978Zm17.327,17.96,5.986-7.982-7.982-9.978H240.523l-7.982,9.978,5.986,7.982m2.993,3.991,8.98,11.972,8.98-11.972" fill="none" stroke="#0f0e0b" stroke-linecap="round" stroke-linejoin="round" stroke-width="1"/> </g> </g>
</svg>