<!DOCTYPE svg PUBLIC "-//W3C//DTD SVG 1.1//EN" "http://www.w3.org/Graphics/SVG/1.1/DTD/svg11.dtd">
<!-- Uploaded to: SVG Repo, www.svgrepo.com, Transformed by: SVG Repo Mixer Tools -->
<svg fill="#0048BD" height="800px" width="800px" version="1.1" id="Layer_1" xmlns="http://www.w3.org/2000/svg" xmlns:xlink="http://www.w3.org/1999/xlink" viewBox="0 0 512 512" xml:space="preserve">
<g id="SVGRepo_bgCarrier" stroke-width="0"/>
<g id="SVGRepo_tracerCarrier" stroke-linecap="round" stroke-linejoin="round"/>
<g id="SVGRepo_iconCarrier"> <g> <g> <path d="M512,405.854V31.219H0v374.634h187.317v37.463H143.61v37.463H368.39v-37.463h-43.707v-37.463H512z M287.219,443.317 h-62.439v-37.463h62.439V443.317z M37.463,368.39V68.683h437.073V368.39H37.463z"/> </g> </g> <g> <g> <polygon points="337.927,149.097 311.438,175.586 354.388,218.537 311.438,261.487 337.927,287.976 407.368,218.537 "/> </g> </g> <g> <g> <polygon points="200.562,175.586 174.073,149.097 104.632,218.537 174.073,287.976 200.562,261.487 157.612,218.537 "/> </g> </g> <g> <g> <polygon points="259.203,112.39 214.509,324.683 252.797,324.683 297.49,112.39 "/> </g> </g> </g>
</svg>