<!DOCTYPE svg PUBLIC "-//W3C//DTD SVG 1.1//EN" "http://www.w3.org/Graphics/SVG/1.1/DTD/svg11.dtd">
<!-- Uploaded to: SVG Repo, www.svgrepo.com, Transformed by: SVG Repo Mixer Tools -->
<svg version="1.1" id="Layer_1" xmlns="http://www.w3.org/2000/svg" xmlns:xlink="http://www.w3.org/1999/xlink" viewBox="0 0 512 512" xml:space="preserve" width="800px" height="800px" fill="#000000">
<g id="SVGRepo_bgCarrier" stroke-width="0"/>
<g id="SVGRepo_tracerCarrier" stroke-linecap="round" stroke-linejoin="round"/>
<g id="SVGRepo_iconCarrier"> <g> <rect x="184.448" y="417.12" style="fill:#2C3E50;" width="143.088" height="32"/> <polygon style="fill:#2C3E50;" points="381.936,459.76 130.064,459.76 178.416,417.2 333.584,417.2 "/> <rect x="311.552" y="355.68" style="fill:#2C3E50;" width="32" height="77.536"/> <rect x="168.448" y="355.68" style="fill:#2C3E50;" width="32" height="77.536"/> </g> <path style="fill:#0048BD;" d="M37.296,359.296C21.136,359.296,8,346.16,8,330V89.536C8,73.376,21.136,60.24,37.296,60.24h437.408 c16.16,0,29.296,13.136,29.296,29.296v240.448c0,16.16-13.136,29.296-29.296,29.296H37.296V359.296z"/> <path style="fill:#2C3E50;" d="M474.704,68.24c11.744,0,21.296,9.552,21.296,21.296v240.448c0,11.744-9.552,21.296-21.296,21.296 H37.296C25.552,351.296,16,341.744,16,330V89.536c0-11.744,9.552-21.296,21.296-21.296L474.704,68.24 M474.704,52.24H37.296 C16.784,52.24,0,69.024,0,89.536v240.448c0,20.512,16.784,37.296,37.296,37.296h437.408c20.512,0,37.296-16.784,37.296-37.296 V89.536C512,69.024,495.216,52.24,474.704,52.24L474.704,52.24z"/> <g> <path style="fill:#FFFFFF;" d="M244.656,276.752c-43.888,0-79.6-35.696-79.6-79.6c0-43.872,35.696-79.584,79.6-79.584 s79.6,35.696,79.6,79.584S288.544,276.752,244.656,276.752z M244.656,133.568c-35.056,0-63.6,28.512-63.6,63.584 s28.528,63.6,63.6,63.6s63.6-28.528,63.6-63.6S279.712,133.568,244.656,133.568z"/> <rect x="281.766" y="267.122" transform="matrix(-0.7072 -0.707 0.707 -0.7072 348.3746 694.5162)" style="fill:#FFFFFF;" width="72.463" height="16"/> </g> </g>
</svg>